<?xml version="1.0" encoding="UTF-8"?> <svg xmlns="http://www.w3.org/2000/svg" width="75" height="75" viewBox="0 0 75 75" fill="none"><g clip-path="url(#clip0_66_586)"><path opacity="0.934" fill-rule="evenodd" clip-rule="evenodd" d="M74.9268 22.7783C74.9268 29.4678 74.9268 36.1572 74.9268 42.8467C74.515 43.5756 73.9291 44.1371 73.1689 44.5312C72.0051 44.7492 70.8333 44.7981 69.6533 44.6777C68.4521 44.5019 67.6465 43.8428 67.2363 42.7002C67.1631 40.3569 67.1386 38.0131 67.1631 35.6689C66.4794 35.6689 65.7959 35.6689 65.1123 35.6689C65.1123 43.4326 65.1123 51.1963 65.1123 58.96C66.5291 58.9356 67.9452 58.96 69.3604 59.0332C70.3515 59.4867 70.9617 60.2436 71.1914 61.3037C71.2891 62.1826 71.2891 63.0615 71.1914 63.9404C70.9617 65.0005 70.3515 65.7574 69.3604 66.2109C46.8505 66.3086 24.3409 66.3086 1.83105 66.2109C0.925102 65.8663 0.290336 65.2559 -0.0732422 64.3799C-0.0732422 63.208 -0.0732422 62.0361 -0.0732422 60.8643C0.290336 59.9883 0.925102 59.3779 1.83105 59.0332C16.5283 58.96 31.2255 58.9355 45.9229 58.96C46.2727 54.3727 46.5412 49.7829 46.7285 45.1904C46.1933 42.2738 44.4599 40.5892 41.5283 40.1367C32.1034 39.2332 22.6794 38.33 13.2568 37.4268C13.2055 38.607 13.0834 39.7789 12.8906 40.9424C12.6361 41.4904 12.2698 41.9543 11.792 42.334C11.8837 42.4438 11.9569 42.566 12.0117 42.7002C12.1094 43.9698 12.1094 45.2392 12.0117 46.5088C11.6699 47.4365 11.0352 48.0713 10.1074 48.4131C10.0586 50.5616 10.0098 52.7099 9.96094 54.8584C9.94507 55.4848 9.62769 55.7777 9.00879 55.7373C8.52319 55.8129 8.20581 55.6176 8.05664 55.1514C8.00782 52.9053 7.95898 50.6591 7.91016 48.4131C6.27816 47.7144 5.57016 46.4692 5.78613 44.6777C5.76889 43.9049 5.86655 43.148 6.0791 42.4072C5.07441 41.2728 4.63496 39.93 4.76074 38.3789C4.93564 37.4782 5.47276 37.1852 6.37207 37.5C6.57615 37.6715 6.69822 37.8913 6.73828 38.1592C6.7871 38.7939 6.83594 39.4288 6.88477 40.0635C6.99968 40.3251 7.17059 40.5448 7.39746 40.7227C8.47167 40.8204 9.5459 40.8204 10.6201 40.7227C10.7422 40.6006 10.8643 40.4785 10.9863 40.3564C11.4497 35.1397 11.8648 29.915 12.2314 24.6826C12.2097 24.2241 12.0144 23.8579 11.6455 23.584C9.8877 23.4863 8.12988 23.4863 6.37207 23.584C5.88617 23.8482 5.69086 24.2632 5.78613 24.8291C5.99764 27.5377 6.19295 30.2477 6.37207 32.959C6.59436 33.8597 6.27699 34.4213 5.41992 34.6435C5.05381 34.5581 4.76084 34.3629 4.54102 34.0576C4.28313 31.0087 4.0634 27.9568 3.88184 24.9023C3.72911 23.4245 4.31505 22.3746 5.63965 21.7529C5.81552 19.1585 7.1827 17.9622 9.74121 18.1641C11.4882 18.717 12.2695 19.9134 12.085 21.7529C12.6313 21.8344 13.0952 22.0784 13.4766 22.4853C13.9026 23.1037 14.1711 23.7872 14.2822 24.5361C23.8261 23.8494 33.3721 23.1658 42.9199 22.4853C43.8708 22.6787 44.1637 23.2157 43.7988 24.0967C43.6273 24.3007 43.4076 24.4229 43.1396 24.4629C33.422 25.1254 23.7053 25.7846 13.9893 26.4404C13.8078 29.4687 13.6125 32.4961 13.4033 35.5225C22.9257 36.4063 32.4472 37.3097 41.9678 38.2324C45.6864 38.8749 47.908 41.0477 48.6328 44.751C48.5297 49.4959 48.2612 54.2322 47.8271 58.96C52.9541 58.96 58.0811 58.96 63.208 58.96C63.2789 48.6029 63.2057 38.2515 62.9883 27.9053C62.06 25.1703 60.1557 23.7054 57.2754 23.5107C53.9351 23.8116 50.5904 23.9824 47.2412 24.0234C46.6327 23.379 46.6815 22.7931 47.3877 22.2656C49.0487 22.1402 50.7088 22.0182 52.3682 21.8994C52.3682 21.4112 52.3682 20.9228 52.3682 20.4346C51.27 20.2884 50.5132 19.7024 50.0977 18.6768C49.8643 16.1931 49.8154 13.7029 49.9512 11.2061C50.2554 9.29116 51.3785 8.41226 53.3203 8.56933C54.948 8.40556 56.0222 9.08916 56.543 10.6201C56.6407 13.208 56.6407 15.7958 56.543 18.3838C56.2189 19.5628 55.4622 20.2465 54.2725 20.4346C54.2725 20.874 54.2725 21.3135 54.2725 21.7529C55.6875 21.6417 57.1034 21.6173 58.5205 21.6797C62.1582 22.3876 64.3311 24.5606 65.0391 28.1982C65.1122 28.7332 65.1365 29.2702 65.1123 29.8096C65.7959 29.8096 66.4794 29.8096 67.1631 29.8096C67.1386 27.4654 67.1631 25.1216 67.2363 22.7783C67.5678 21.812 68.227 21.2016 69.2139 20.9473C70.4345 20.8496 71.6553 20.8496 72.876 20.9473C73.8691 21.2335 74.5528 21.8437 74.9268 22.7783ZM52.3682 10.4736C52.9562 10.4494 53.5421 10.4738 54.126 10.5469C54.3945 10.6201 54.5654 10.791 54.6387 11.0596C54.7364 13.3545 54.7364 15.6494 54.6387 17.9443C54.2027 18.5946 53.5923 18.8143 52.8076 18.6035C52.4637 18.5528 52.1952 18.3819 52.002 18.0908C51.9042 15.6983 51.9042 13.3057 52.002 10.9131C52.155 10.7851 52.2771 10.6387 52.3682 10.4736ZM8.71582 19.9951C9.72047 20.0717 10.2087 20.6089 10.1807 21.6064C9.39942 21.6064 8.61816 21.6064 7.83691 21.6064C7.71617 20.8211 8.00914 20.2841 8.71582 19.9951ZM69.6533 22.7783C70.5823 22.754 71.51 22.7783 72.4365 22.8516C72.705 22.9248 72.876 23.0957 72.9492 23.3643C73.0469 29.6631 73.0469 35.9619 72.9492 42.2607C72.8272 42.3828 72.705 42.5049 72.583 42.6269C71.5576 42.7247 70.5322 42.7247 69.5068 42.6269C69.3848 42.5049 69.2626 42.3828 69.1406 42.2607C69.0429 35.9619 69.0429 29.6631 69.1406 23.3643C69.2417 23.0933 69.4125 22.8978 69.6533 22.7783ZM65.1123 31.7139C65.7959 31.7139 66.4794 31.7139 67.1631 31.7139C67.1631 32.3975 67.1631 33.081 67.1631 33.7646C66.4794 33.7646 65.7959 33.7646 65.1123 33.7646C65.1123 33.081 65.1123 32.3975 65.1123 31.7139ZM54.7119 38.7451C56.3736 38.7224 57.3502 39.5281 57.6416 41.1621C57.49 42.6321 56.6843 43.4865 55.2246 43.7256C52.9468 43.2224 52.2631 41.904 53.1738 39.7705C53.613 39.2962 54.1257 38.9544 54.7119 38.7451ZM8.56934 42.7002C9.20596 42.5971 9.71865 42.7925 10.1074 43.2861C10.2051 44.165 10.2051 45.0439 10.1074 45.9228C10.0342 46.1914 9.86328 46.3623 9.59473 46.4355C8.94882 46.6204 8.38729 46.4982 7.91016 46.0693C7.8125 45.1416 7.8125 44.2138 7.91016 43.2861C8.04296 42.9772 8.26269 42.7819 8.56934 42.7002ZM54.5654 49.292C56.303 49.1991 57.3284 50.0048 57.6416 51.709C57.4799 53.2135 56.6498 54.068 55.1514 54.2725C52.926 53.728 52.2668 52.4096 53.1738 50.3174C53.5876 49.8814 54.0516 49.5397 54.5654 49.292ZM2.27051 60.8643C24.4386 60.8398 46.6065 60.8643 68.7744 60.9375C69.2443 61.3945 69.4396 61.9561 69.3604 62.6221C69.4396 63.288 69.2443 63.8496 68.7744 64.3066C46.6065 64.4043 24.4384 64.4043 2.27051 64.3066C2.14844 64.1846 2.02636 64.0624 1.9043 63.9404C1.80664 63.0615 1.80664 62.1826 1.9043 61.3037C2.05737 61.1758 2.17944 61.0293 2.27051 60.8643Z" fill="#9B9D82"></path><path opacity="0.911" fill-rule="evenodd" clip-rule="evenodd" d="M54.1259 36.8408C56.8469 36.5033 58.6291 37.6263 59.4726 40.21C59.7128 43.729 58.0772 45.5113 54.5654 45.5567C51.5325 44.7919 50.3362 42.8633 50.9765 39.7705C51.5911 38.3006 52.641 37.3239 54.1259 36.8408ZM54.7118 38.7451C54.1256 38.9545 53.6129 39.2962 53.1738 39.7705C52.2631 41.9041 52.9467 43.2224 55.2245 43.7256C56.6843 43.4865 57.4899 42.6321 57.6415 41.1621C57.3502 39.5281 56.3736 38.7224 54.7118 38.7451Z" fill="#9B9D82"></path><path opacity="0.912" fill-rule="evenodd" clip-rule="evenodd" d="M54.1259 47.3877C57.8352 47.2151 59.6173 48.9729 59.4726 52.6611C58.8893 54.8796 57.4489 56.0515 55.1513 56.1767C52.131 55.8004 50.6906 54.0915 50.83 51.0498C51.2437 49.1965 52.3423 47.9757 54.1259 47.3877ZM54.5654 49.292C54.0515 49.5397 53.5876 49.8814 53.1738 50.3174C52.2668 52.4096 52.9259 53.728 55.1513 54.2724C56.6497 54.0679 57.4798 53.2135 57.6416 51.709C57.3284 50.0048 56.303 49.1991 54.5654 49.292Z" fill="#9B9D82"></path></g><defs><clipPath id="clip0_66_586"><rect width="75" height="75" fill="white"></rect></clipPath></defs></svg> 