<?xml version="1.0" encoding="UTF-8"?> <svg xmlns="http://www.w3.org/2000/svg" width="512" height="512" viewBox="0 0 512 512" fill="none"><g clip-path="url(#clip0_304_11)"><path opacity="0.935" fill-rule="evenodd" clip-rule="evenodd" d="M261.5 -0.5C266.833 -0.5 272.167 -0.5 277.5 -0.5C294.45 8.27622 298.616 21.2762 290 38.5C281.598 48.5559 271.265 51.2226 259 46.5C244.833 60.6667 230.667 74.8333 216.5 89C289.077 61.6864 359.411 66.6864 427.5 104C434.926 108.462 442.092 113.295 449 118.5C453.5 114 458 109.5 462.5 105C465.702 103.517 469.036 103.183 472.5 104C485.368 117.035 498.368 129.869 511.5 142.5C511.5 145.167 511.5 147.833 511.5 150.5C499.063 163.438 486.396 176.272 473.5 189C470.923 190.25 468.257 190.584 465.5 190C451.333 177.167 437.833 163.667 425 149.5C424.416 146.743 424.75 144.077 426 141.5C429.5 138 433 134.5 436.5 131C376.722 89.3624 311.722 78.6957 241.5 99C220.493 105.503 201.16 115.17 183.5 128C192.107 147.298 188.774 164.298 173.5 179C159.049 189.545 143.716 191.045 127.5 183.5C86.78 245.591 78.28 311.924 102 382.5C109.079 401.997 118.745 419.997 131 436.5C134.912 431.917 139.412 428.083 144.5 425C146.167 424.333 147.833 424.333 149.5 425C163.667 437.833 177.167 451.333 190 465.5C190.584 468.257 190.25 470.923 189 473.5C176.272 486.396 163.438 499.063 150.5 511.5C147.833 511.5 145.167 511.5 142.5 511.5C129.2 499.033 116.366 486.033 104 472.5C103.183 469.036 103.517 465.702 105 462.5C109.5 458 114 453.5 118.5 449C77.1257 391.315 63.2924 327.482 77 257.5C80.4334 243.547 84.4334 229.88 89 216.5C74.8333 230.667 60.6667 244.833 46.5 259C51.397 271.967 48.397 282.633 37.5 291C20.4192 298.409 7.75255 293.909 -0.5 277.5C-0.5 272.167 -0.5 266.833 -0.5 261.5C7.10897 246.563 19.109 241.397 35.5 246C60.6667 220.833 85.8333 195.667 111 170.5C109.121 165.703 107.455 160.703 106 155.5C102.954 129.733 113.788 113.233 138.5 106C144.167 105.333 149.833 105.333 155.5 106C160.61 107.703 165.61 109.37 170.5 111C195.667 85.8333 220.833 60.6667 246 35.5C241.397 19.109 246.563 7.10897 261.5 -0.5ZM265.5 16.5C275.002 15.4926 278.502 19.4926 276 28.5C270.729 33.5291 266.062 32.8625 262 26.5C261.182 22.4695 262.349 19.1361 265.5 16.5ZM141.5 122.5C163.264 122.424 172.764 133.091 170 154.5C164.812 166.515 155.645 172.015 142.5 171C125.063 164.96 119.23 153.126 125 135.5C128.962 129.019 134.462 124.686 141.5 122.5ZM467.5 124.5C475.758 131.089 483.425 138.422 490.5 146.5C483.5 154.167 476.167 161.5 468.5 168.5C460.833 161.5 453.5 154.167 446.5 146.5C453.521 139.146 460.521 131.813 467.5 124.5ZM21.5 261.5C31.8891 262.496 34.2224 267.329 28.5 276C20.331 277.82 16.4976 274.653 17 266.5C18.025 264.313 19.525 262.646 21.5 261.5ZM146.5 445.5C154.298 452.798 161.965 460.298 169.5 468C161.986 475.681 154.319 483.181 146.5 490.5C138.833 483.5 131.5 476.167 124.5 468.5C131.855 460.813 139.188 453.146 146.5 445.5Z" fill="#9B9D82"></path><path opacity="0.93" fill-rule="evenodd" clip-rule="evenodd" d="M511.5 374.5C511.5 377.5 511.5 380.5 511.5 383.5C468.5 425.833 425.833 468.5 383.5 511.5C380.5 511.5 377.5 511.5 374.5 511.5C364.336 493.174 354.669 474.507 345.5 455.5C315.286 443.596 285.12 431.596 255 419.5C226.267 348.704 198.1 277.704 170.5 206.5C170.577 204.701 171.077 203.034 172 201.5C181.833 191.667 191.667 181.833 201.5 172C204.03 170.578 206.697 170.245 209.5 171C279.5 199 349.5 227 419.5 255C431.911 284.992 443.911 315.158 455.5 345.5C474.507 354.669 493.174 364.336 511.5 374.5ZM207.5 189.5C274.248 215.121 340.748 241.454 407 268.5C417.371 295.404 427.871 322.237 438.5 349C408.667 378.833 378.833 408.667 349 438.5C322 427.833 295 417.167 268 406.5C241.83 340.828 215.664 275.162 189.5 209.5C189.84 206.982 191.174 205.815 193.5 206C227 239.5 260.5 273 294 306.5C290.501 313.675 288.168 321.341 287 329.5C286.376 356.76 299.209 373.927 325.5 381C354.488 383.771 372.988 371.271 381 343.5C384.135 315.242 372.301 296.742 345.5 288C340.201 286.855 334.868 286.522 329.5 287C321.341 288.168 313.675 290.501 306.5 294C273 260.5 239.5 227 206 193.5C205.7 191.934 206.2 190.601 207.5 189.5ZM330.5 303.5C347.678 303.186 358.845 311.186 364 327.5C366.294 345.752 358.794 357.919 341.5 364C321.387 366.537 308.887 358.037 304 338.5C303.229 319.451 312.062 307.784 330.5 303.5ZM449.5 362.5C462.757 368.462 475.757 374.962 488.5 382C453 417.5 417.5 453 382 488.5C374.808 475.785 368.474 462.785 363 449.5C392.035 420.632 420.868 391.632 449.5 362.5Z" fill="#9B9D82"></path></g><defs><clipPath id="clip0_304_11"><rect width="512" height="512" fill="white"></rect></clipPath></defs></svg> 