<?xml version="1.0" encoding="UTF-8"?> <svg xmlns="http://www.w3.org/2000/svg" width="512" height="512" viewBox="0 0 512 512" fill="none"><g clip-path="url(#clip0_304_2)"><path opacity="0.951" fill-rule="evenodd" clip-rule="evenodd" d="M246.5 -0.5C252.5 -0.5 258.5 -0.5 264.5 -0.5C292.062 9.62086 301.895 28.9542 294 57.5C288.317 70.0151 278.817 78.0151 265.5 81.5C264.167 82.1667 264.167 82.8333 265.5 83.5C283.5 88.1667 301.5 92.8333 319.5 97.5C320.254 93.0469 321.421 88.7136 323 84.5C325.113 82.627 327.613 81.627 330.5 81.5C361.903 87.014 393.236 92.8473 424.5 99C454.034 127.367 483.034 156.201 511.5 185.5C511.5 188.167 511.5 190.833 511.5 193.5C489.062 216.438 466.395 239.272 443.5 262C439.968 264.524 436.302 264.857 432.5 263C426 256.5 419.5 250 413 243.5C412.667 309.5 412.333 375.5 412 441.5C388.632 464.701 365.465 488.035 342.5 511.5C238.833 511.5 135.167 511.5 31.5 511.5C15.1754 506.509 4.5087 495.842 -0.5 479.5C-0.5 473.5 -0.5 467.5 -0.5 461.5C2.14703 451.666 7.48036 443.499 15.5 437C7.53691 430.892 2.20358 423.059 -0.5 413.5C-0.5 407.5 -0.5 401.5 -0.5 395.5C2.14703 385.666 7.48036 377.499 15.5 371C7.54916 364.926 2.21582 357.093 -0.5 347.5C-0.5 341.167 -0.5 334.833 -0.5 328.5C4.54059 311.295 15.8739 300.795 33.5 297C55.1641 296.5 76.8308 296.333 98.5 296.5C98.6666 278.83 98.4999 261.164 98 243.5C91.5 250 85 256.5 78.5 263C74.6984 264.857 71.0317 264.524 67.5 262C44.6046 239.272 21.9379 216.438 -0.5 193.5C-0.5 190.833 -0.5 188.167 -0.5 185.5C27.9663 156.201 56.9663 127.367 86.5 99C117.764 92.8473 149.097 87.014 180.5 81.5C183.276 81.8047 185.776 82.8047 188 84.5C189.579 88.7136 190.746 93.0469 191.5 97.5C209.5 92.8333 227.5 88.1667 245.5 83.5C246.325 79.8776 246.825 76.211 247 72.5C247.36 70.5789 248.194 68.9122 249.5 67.5C254.561 65.2608 259.894 63.7608 265.5 63C280.107 53.8423 283.273 41.6757 275 26.5C262 13.1667 249 13.1667 236 26.5C232.979 31.0621 231.479 36.0621 231.5 41.5C225.5 41.5 219.5 41.5 213.5 41.5C214.884 19.7986 225.884 5.79859 246.5 -0.5ZM253.5 99.5C274.077 103.894 294.41 109.061 314.5 115C294.741 142.036 268.407 151.703 235.5 144C219.085 138.917 206.085 129.25 196.5 115C215.517 109.664 234.517 104.497 253.5 99.5ZM171.5 100.5C184.364 141.003 212.364 162.337 255.5 164.5C287.673 163.673 312.507 150.006 330 123.5C333.527 116.086 336.36 108.42 338.5 100.5C364.426 105.652 390.426 110.485 416.5 115C441 139.5 465.5 164 490 188.5C490.667 189.167 490.667 189.833 490 190.5C472.653 208.014 455.153 225.347 437.5 242.5C420.347 225.847 403.347 209.014 386.5 192C381.532 194.782 377.198 198.616 373.5 203.5C380.485 210.986 387.652 218.319 395 225.5C395.5 293.166 395.667 360.833 395.5 428.5C375.164 428.333 354.831 428.5 334.5 429C332.667 430.167 331.167 431.667 330 433.5C329.5 453.831 329.333 474.164 329.5 494.5C305.164 494.667 280.831 494.5 256.5 494C268.609 472.981 265.942 453.981 248.5 437C263.398 423.242 267.565 406.742 261 387.5C257.926 381.192 253.76 375.692 248.5 371C266.283 353.466 268.783 333.966 256 312.5C249.273 304.388 240.773 299.221 230.5 297C192.168 296.5 153.835 296.333 115.5 296.5C115.333 272.831 115.5 249.164 116 225.5C123 218.5 130 211.5 137 204.5C137.667 203.833 137.667 203.167 137 202.5C133.5 199 130 195.5 126.5 192C125.833 191.333 125.167 191.333 124.5 192C107.653 209.014 90.6528 225.847 73.5 242.5C55.5 225.167 37.8333 207.5 20.5 189.5C44.9862 164.514 69.6528 139.68 94.5 115C120.382 110.578 146.049 105.745 171.5 100.5ZM39.5 313.5C101.168 313.333 162.834 313.5 224.5 314C235.662 315.494 242.829 321.661 246 332.5C247.931 348.482 241.098 358.316 225.5 362C162.833 362.667 100.167 362.667 37.5 362C19.6655 356.834 13.4988 345.334 19 327.5C23.5925 319.461 30.4258 314.794 39.5 313.5ZM39.5 379.5C100.834 379.333 162.168 379.5 223.5 380C240.029 382.874 247.529 392.707 246 409.5C243.058 419.443 236.558 425.609 226.5 428C163.167 428.667 99.8333 428.667 36.5 428C19.3863 422.273 13.553 410.773 19 393.5C23.573 385.468 30.4063 380.801 39.5 379.5ZM40.5 445.5C101.168 445.333 161.834 445.5 222.5 446C239.754 448.344 247.587 458.178 246 475.5C243.058 485.443 236.558 491.609 226.5 494C163.167 494.667 99.8333 494.667 36.5 494C19.3863 488.273 13.553 476.773 19 459.5C23.8629 451.16 31.0296 446.493 40.5 445.5ZM346.5 445.5C358.505 445.333 370.505 445.5 382.5 446C370.667 457.833 358.833 469.667 347 481.5C346.5 469.505 346.333 457.505 346.5 445.5Z" fill="#9B9D82"></path><path opacity="0.969" fill-rule="evenodd" clip-rule="evenodd" d="M32.5 329.5C98.8333 329.5 165.167 329.5 231.5 329.5C231.5 335.167 231.5 340.833 231.5 346.5C165.167 346.5 98.8333 346.5 32.5 346.5C32.5 340.833 32.5 335.167 32.5 329.5Z" fill="#9B9D82"></path><path opacity="0.972" fill-rule="evenodd" clip-rule="evenodd" d="M32.5 395.5C95.8333 395.5 159.167 395.5 222.5 395.5C222.5 401.167 222.5 406.833 222.5 412.5C159.167 412.5 95.8333 412.5 32.5 412.5C32.5 406.833 32.5 401.167 32.5 395.5Z" fill="#9B9D82"></path><path opacity="0.972" fill-rule="evenodd" clip-rule="evenodd" d="M32.5 461.5C95.8333 461.5 159.167 461.5 222.5 461.5C222.5 467.167 222.5 472.833 222.5 478.5C159.167 478.5 95.8333 478.5 32.5 478.5C32.5 472.833 32.5 467.167 32.5 461.5Z" fill="#9B9D82"></path></g><defs><clipPath id="clip0_304_2"><rect width="512" height="512" fill="white"></rect></clipPath></defs></svg> 