<?xml version="1.0" encoding="UTF-8"?> <svg xmlns="http://www.w3.org/2000/svg" width="75" height="75" viewBox="0 0 75 75" fill="none"><g clip-path="url(#clip0_65_528)"><path opacity="0.952" fill-rule="evenodd" clip-rule="evenodd" d="M25.1221 -0.0732422C25.6592 -0.0732422 26.1962 -0.0732422 26.7334 -0.0732422C33.8621 2.65651 40.991 2.65651 48.1201 -0.0732422C48.6083 -0.0732422 49.0967 -0.0732422 49.585 -0.0732422C53.5576 1.88846 57.5615 3.81716 61.5967 5.71289C65.1521 7.85348 67.5691 10.9052 68.8477 14.8682C70.2738 20.2069 71.6654 25.5536 73.0225 30.9082C72.9896 31.5608 72.6967 32.049 72.1436 32.373C68.0304 34.6857 63.9533 37.054 59.9121 39.4775C59.8633 48.8038 59.8144 58.1298 59.7656 67.4561C58.9847 70.256 57.1537 71.9405 54.2725 72.5098C49.9882 73.7606 45.6426 74.5663 41.2354 74.9268C38.6963 74.9268 36.1572 74.9268 33.6182 74.9268C29.3687 74.5682 25.1694 73.8113 21.0205 72.6562C19.0252 72.2826 17.3896 71.3304 16.1133 69.7998C15.6299 69.0826 15.2881 68.3013 15.0879 67.4561C15.0634 58.0806 14.9902 48.7056 14.8682 39.3311C10.8154 37.0118 6.7627 34.6923 2.70996 32.373C2.1358 32.0191 1.84283 31.5064 1.83105 30.835C3.27763 25.0487 4.81572 19.287 6.44531 13.5498C7.82909 10.1643 10.0996 7.55194 13.2568 5.71289C17.246 3.82349 21.2011 1.89478 25.1221 -0.0732422ZM24.5361 3.88184C25.9755 9.69105 29.6376 13.1823 35.5225 14.3555C41.8988 14.9035 46.513 12.34 49.3652 6.66504C49.7259 5.75962 50.0188 4.83189 50.2441 3.88184C53.9159 5.6567 57.5537 7.48775 61.1572 9.375C62.9873 10.8144 64.3789 12.5967 65.332 14.7217C66.7359 19.8252 68.1275 24.9277 69.5068 30.0293C66.333 31.8604 63.1592 33.6914 59.9854 35.5225C59.8633 33.0337 59.7901 30.5435 59.7656 28.0518C59.1551 27.1749 58.3494 26.9552 57.3486 27.3926C57.1777 27.5635 57.0069 27.7343 56.8359 27.9053C56.6417 40.8365 56.5441 53.7759 56.543 66.7236C56.2554 67.6463 55.6938 68.3543 54.8584 68.8477C43.1181 72.6993 31.3994 72.6504 19.7021 68.7012C19.0746 68.2195 18.6108 67.6091 18.3105 66.8701C18.3094 53.9224 18.2118 40.983 18.0176 28.0518C17.331 27.1091 16.4764 26.9382 15.4541 27.5391C15.2782 27.6713 15.156 27.8421 15.0879 28.0518C14.8988 30.5323 14.8011 33.0226 14.7949 35.5225C11.6095 33.7469 8.46009 31.9159 5.34668 30.0293C6.68032 24.9148 8.07192 19.8123 9.52148 14.7217C10.5729 12.2054 12.2574 10.2279 14.5752 8.78906C17.9269 7.18633 21.2473 5.55059 24.5361 3.88184ZM28.0518 3.88184C34.2771 5.63834 40.5026 5.63834 46.7285 3.88184C45.7346 7.65857 43.3176 10.0267 39.4775 10.9863C34.5567 11.6632 30.919 9.8321 28.5645 5.49316C28.3254 4.97571 28.1544 4.43859 28.0518 3.88184Z" fill="#9B9D82"></path></g><defs><clipPath id="clip0_65_528"><rect width="75" height="75" fill="white"></rect></clipPath></defs></svg> 